<svg version="1.1" xmlns="http://www.w3.org/2000/svg" xmlns:xlink="http://www.w3.org/1999/xlink" width="179" height="179" viewBox="0,0,179,179"><defs><linearGradient x1="240" y1="90.5" x2="240" y2="269.5" gradientUnits="userSpaceOnUse" id="color-1"><stop offset="0" stop-color="#424242"/><stop offset="1" stop-color="#000000"/></linearGradient><linearGradient x1="240" y1="118.9028" x2="240" y2="238.12" gradientUnits="userSpaceOnUse" id="color-2"><stop offset="0" stop-color="#ff5252"/><stop offset="0.4455" stop-color="#ee3030"/><stop offset="1" stop-color="#d50000"/></linearGradient></defs><g transform="translate(-150.5,-90.5)"><g data-paper-data="{&quot;isPaintingLayer&quot;:true}" fill-rule="nonzero" stroke="none" stroke-linecap="butt" stroke-linejoin="miter" stroke-miterlimit="10" stroke-dasharray="" stroke-dashoffset="0" style="mix-blend-mode: normal"><path d="M150.5,180c0,-49.42949 40.07051,-89.5 89.5,-89.5c49.42949,0 89.5,40.07051 89.5,89.5c0,49.42949 -40.07051,89.5 -89.5,89.5c-49.42949,0 -89.5,-40.07051 -89.5,-89.5z" fill="url(#color-1)" stroke-width="0"/><path d="M296.48,219.59c4.69,4.67 4.69,12.23 0,16.9c-4.69,4.67 -12.28,4.67 -16.97,0l-38.11,-38.15c-0.78,-0.78 -2.05,-0.78 -2.83,0l-38.17,38.14c-4.67,4.69 -12.23,4.69 -16.9,0c-4.67,-4.69 -4.67,-12.28 0,-16.97l38.15,-38.11c0.78,-0.78 0.78,-2.05 0,-2.83l-38.14,-38.17c-4.69,-4.67 -4.69,-12.23 0,-16.9c4.69,-4.67 12.29,-4.67 16.98,0l38.1,38.15c0.78,0.78 2.05,0.78 2.83,0l38.18,-38.14c4.67,-4.69 12.23,-4.69 16.9,0c4.67,4.69 4.67,12.28 0,16.97l-38.15,38.11c-0.78,0.78 -0.78,2.05 0,2.83z" fill="url(#color-2)" stroke-width="1"/></g></g></svg>